<svg viewBox="0 0 640 480" fill="none" xmlns="http://www.w3.org/2000/svg" role="img" aria-label="Educational center campus">
  <defs>
    <linearGradient id="sky" x1="0" y1="0" x2="0" y2="480" gradientUnits="userSpaceOnUse">
      <stop stop-color="#ecfdf5"/>
      <stop offset="0.5" stop-color="#faf9f9"/>
      <stop offset="1" stop-color="#f3f1f1"/>
    </linearGradient>
  </defs>
  <rect width="640" height="480" fill="url(#sky)"/>
  <ellipse cx="520" cy="400" rx="80" ry="24" fill="#0d9488" fill-opacity="0.12"/>
  <path d="M520 280c0-40 24-72 0-96-24 24 0 56 0 96z" fill="#115e59" fill-opacity="0.25"/>
  <rect x="120" y="180" width="400" height="220" rx="8" fill="#ffffff" stroke="#ba181b" stroke-opacity="0.2" stroke-width="1.5"/>
  <path d="M120 180l200-80 200 80" fill="#ba181b" fill-opacity="0.15" stroke="#ba181b" stroke-opacity="0.3"/>
  <rect x="200" y="240" width="80" height="100" rx="4" fill="#0d9488" fill-opacity="0.2" stroke="#0d9488" stroke-opacity="0.3"/>
  <rect x="320" y="240" width="80" height="100" rx="4" fill="#0d9488" fill-opacity="0.2" stroke="#0d9488" stroke-opacity="0.3"/>
  <rect x="440" y="240" width="56" height="100" rx="4" fill="#ba181b" fill-opacity="0.15"/>
  <rect x="280" y="360" width="80" height="40" rx="4" fill="#a4161a" fill-opacity="0.25"/>
  <circle cx="320" cy="120" r="32" fill="#ba181b" fill-opacity="0.1" stroke="#ba181b" stroke-opacity="0.2"/>
  <path d="M320 96v16M312 104h16" stroke="#ba181b" stroke-opacity="0.4" stroke-width="2" stroke-linecap="round"/>
  <text x="320" y="420" text-anchor="middle" fill="#161a1d" font-family="Arial, sans-serif" font-size="22" font-weight="700" direction="rtl">E1C2 *9DJEJ  E51</text>
  <rect x="160" y="400" width="320" height="8" rx="4" fill="#a4161a" fill-opacity="0.15"/>
</svg>
