<svg viewBox="0 0 640 480" fill="none" xmlns="http://www.w3.org/2000/svg" role="img" aria-label="Egyptian classroom">
  <defs>
    <linearGradient id="bg" x1="0" y1="0" x2="640" y2="480" gradientUnits="userSpaceOnUse">
      <stop stop-color="#faf9f9"/>
      <stop offset="1" stop-color="#f3f1f1"/>
    </linearGradient>
    <linearGradient id="board" x1="80" y1="60" x2="560" y2="220" gradientUnits="userSpaceOnUse">
      <stop stop-color="#0f766e"/>
      <stop offset="1" stop-color="#115e59"/>
    </linearGradient>
    <pattern id="geo" width="32" height="32" patternUnits="userSpaceOnUse">
      <path d="M16 0v32M0 16h32" stroke="#ba181b" stroke-opacity="0.06" stroke-width="0.75"/>
      <circle cx="16" cy="16" r="1.5" fill="#ba181b" fill-opacity="0.08"/>
    </pattern>
  </defs>
  <rect width="640" height="480" fill="url(#bg)"/>
  <rect width="640" height="480" fill="url(#geo)"/>
  <rect x="48" y="48" width="544" height="180" rx="16" fill="url(#board)"/>
  <rect x="72" y="72" width="496" height="8" rx="4" fill="#ffffff" fill-opacity="0.15"/>
  <text x="320" y="130" text-anchor="middle" fill="#ecfdf5" font-family="Arial, sans-serif" font-size="36" font-weight="700" direction="rtl">E1C2 *9DJEJ</text>
  <text x="320" y="168" text-anchor="middle" fill="#99f6e4" font-family="Arial, sans-serif" font-size="18" direction="rtl">EF5) H'-/) DCD A5HD E1C2C</text>
  <rect x="80" y="260" width="120" height="72" rx="10" fill="#ffffff" stroke="#ba181b" stroke-opacity="0.2" stroke-width="1.5"/>
  <rect x="96" y="276" width="88" height="8" rx="3" fill="#a4161a" fill-opacity="0.35"/>
  <rect x="96" y="292" width="72" height="6" rx="2" fill="#a4161a" fill-opacity="0.2"/>
  <rect x="96" y="306" width="56" height="6" rx="2" fill="#a4161a" fill-opacity="0.15"/>
  <rect x="220" y="260" width="120" height="72" rx="10" fill="#ffffff" stroke="#ba181b" stroke-opacity="0.2" stroke-width="1.5"/>
  <rect x="236" y="276" width="88" height="8" rx="3" fill="#a4161a" fill-opacity="0.35"/>
  <rect x="236" y="292" width="72" height="6" rx="2" fill="#a4161a" fill-opacity="0.2"/>
  <rect x="360" y="260" width="120" height="72" rx="10" fill="#ffffff" stroke="#ba181b" stroke-opacity="0.2" stroke-width="1.5"/>
  <rect x="376" y="276" width="88" height="8" rx="3" fill="#a4161a" fill-opacity="0.35"/>
  <rect x="376" y="292" width="72" height="6" rx="2" fill="#a4161a" fill-opacity="0.2"/>
  <rect x="500" y="260" width="92" height="72" rx="10" fill="#ba181b" fill-opacity="0.12" stroke="#ba181b" stroke-opacity="0.25" stroke-width="1.5"/>
  <path d="M528 284h36v28h-36z" fill="#0d9488" fill-opacity="0.35"/>
  <path d="M536 292h20v4h-20zm0 8h16v4h-16z" fill="#ffffff" fill-opacity="0.6"/>
  <rect x="48" y="360" width="544" height="72" rx="14" fill="#ffffff" stroke="#ba181b" stroke-opacity="0.15" stroke-width="1.25"/>
  <circle cx="96" cy="396" r="20" fill="#ba181b" fill-opacity="0.15"/>
  <rect x="128" y="384" width="120" height="8" rx="3" fill="#a4161a" fill-opacity="0.3"/>
  <rect x="128" y="400" width="88" height="6" rx="2" fill="#a4161a" fill-opacity="0.18"/>
  <rect x="280" y="384" width="280" height="10" rx="4" fill="#0d9488" fill-opacity="0.2"/>
  <rect x="280" y="404" width="220" height="8" rx="3" fill="#a4161a" fill-opacity="0.15"/>
</svg>
