<svg viewBox="0 0 640 480" fill="none" xmlns="http://www.w3.org/2000/svg" role="img" aria-label="Arabic library books">
  <rect width="640" height="480" fill="#faf9f9"/>
  <rect x="48" y="120" width="544" height="280" rx="12" fill="#8b4513" fill-opacity="0.15" stroke="#a4161a" stroke-opacity="0.2"/>
  <rect x="72" y="96" width="56" height="200" rx="4" fill="#ba181b" fill-opacity="0.35"/>
  <text x="100" y="200" text-anchor="middle" fill="#ffffff" font-family="Arial, sans-serif" font-size="14" transform="rotate(-90 100 200)">1J'6J'*</text>
  <rect x="136" y="112" width="48" height="184" rx="4" fill="#0d9488" fill-opacity="0.4"/>
  <text x="160" y="200" text-anchor="middle" fill="#ffffff" font-family="Arial, sans-serif" font-size="14" transform="rotate(-90 160 200)">9DHE</text>
  <rect x="192" y="104" width="52" height="192" rx="4" fill="#a4161a" fill-opacity="0.45"/>
  <text x="218" y="200" text-anchor="middle" fill="#ffffff" font-family="Arial, sans-serif" font-size="14" transform="rotate(-90 218 200)">D:)</text>
  <rect x="252" y="116" width="44" height="180" rx="4" fill="#115e59" fill-opacity="0.5"/>
  <text x="274" y="200" text-anchor="middle" fill="#ecfdf5" font-family="Arial, sans-serif" font-size="14" transform="rotate(-90 274 200)">*'1J.</text>
  <rect x="304" y="108" width="50" height="188" rx="4" fill="#660708" fill-opacity="0.35"/>
  <text x="329" y="200" text-anchor="middle" fill="#ffffff" font-family="Arial, sans-serif" font-size="14" transform="rotate(-90 329 200)">,:1'AJ'</text>
  <rect x="364" y="120" width="46" height="176" rx="4" fill="#ba181b" fill-opacity="0.3"/>
  <rect x="418" y="112" width="48" height="184" rx="4" fill="#0d9488" fill-opacity="0.35"/>
  <rect x="474" y="104" width="52" height="192" rx="4" fill="#a4161a" fill-opacity="0.4"/>
  <rect x="532" y="116" width="44" height="180" rx="4" fill="#115e59" fill-opacity="0.4"/>
  <rect x="80" y="320" width="480" height="64" rx="10" fill="#ffffff" stroke="#ba181b" stroke-opacity="0.15"/>
  <text x="320" y="358" text-anchor="middle" fill="#161a1d" font-family="Arial, sans-serif" font-size="20" font-weight="600" direction="rtl">EC*() 'DE1C2</text>
</svg>
