<svg viewBox="0 0 640 480" fill="none" xmlns="http://www.w3.org/2000/svg" role="img" aria-label="Live online class">
  <rect width="640" height="480" fill="#161a1d" fill-opacity="0.04"/>
  <rect x="48" y="48" width="544" height="384" rx="16" fill="#161a1d" fill-opacity="0.85" stroke="#ba181b" stroke-opacity="0.3"/>
  <rect x="80" y="80" width="320" height="240" rx="12" fill="#115e59" fill-opacity="0.6"/>
  <circle cx="240" cy="180" r="48" fill="#ba181b" fill-opacity="0.25"/>
  <path d="M224 168l32 18v-36l-32 18z" fill="#ecfdf5" fill-opacity="0.8"/>
  <text x="240" y="260" text-anchor="middle" fill="#99f6e4" font-family="Arial, sans-serif" font-size="16" direction="rtl">-5) E('41)</text>
  <rect x="424" y="80" width="136" height="72" rx="8" fill="#ffffff" fill-opacity="0.1" stroke="#ba181b" stroke-opacity="0.2"/>
  <circle cx="492" cy="116" r="20" fill="#0d9488" fill-opacity="0.3"/>
  <rect x="424" y="168" width="136" height="72" rx="8" fill="#ffffff" fill-opacity="0.1" stroke="#ba181b" stroke-opacity="0.2"/>
  <circle cx="492" cy="204" r="20" fill="#ba181b" fill-opacity="0.25"/>
  <rect x="424" y="256" width="136" height="64" rx="8" fill="#ffffff" fill-opacity="0.1" stroke="#ba181b" stroke-opacity="0.2"/>
  <circle cx="492" cy="288" r="20" fill="#ba181b" fill-opacity="0.25"/>
  <rect x="80" y="344" width="480" height="56" rx="10" fill="#ffffff" fill-opacity="0.08"/>
  <circle cx="108" cy="372" r="8" fill="#ba181b"/>
  <text x="128" y="378" fill="#ecfdf5" font-family="Arial, sans-serif" font-size="14" direction="rtl">E9DE " bd 7'D( E*5D</text>
  <rect x="480" y="356" width="64" height="32" rx="8" fill="#ba181b" fill-opacity="0.4"/>
  <text x="512" y="376" text-anchor="middle" fill="#ffffff" font-family="Arial, sans-serif" font-size="12" direction="rtl">E('41</text>
</svg>
