<svg viewBox="0 0 640 480" fill="none" xmlns="http://www.w3.org/2000/svg" role="img" aria-label="Student learning">
  <rect width="640" height="480" fill="#faf9f9"/>
  <rect x="48" y="48" width="544" height="384" rx="20" fill="#ffffff" stroke="#ba181b" stroke-opacity="0.15" stroke-width="1.5"/>
  <rect x="80" y="80" width="240" height="160" rx="12" fill="#0d9488" fill-opacity="0.12" stroke="#0d9488" stroke-opacity="0.25"/>
  <rect x="104" y="104" width="192" height="112" rx="8" fill="#115e59" fill-opacity="0.85"/>
  <text x="200" y="155" text-anchor="middle" fill="#ecfdf5" font-family="Arial, sans-serif" font-size="20" direction="rtl">,/HD 'D-55</text>
  <rect x="120" y="170" width="160" height="8" rx="3" fill="#99f6e4" fill-opacity="0.5"/>
  <rect x="120" y="188" width="120" height="6" rx="2" fill="#99f6e4" fill-opacity="0.35"/>
  <rect x="120" y="202" width="140" height="6" rx="2" fill="#99f6e4" fill-opacity="0.35"/>
  <rect x="352" y="80" width="208" height="240" rx="12" fill="#ba181b" fill-opacity="0.06" stroke="#ba181b" stroke-opacity="0.18"/>
  <circle cx="456" cy="140" r="36" fill="#ba181b" fill-opacity="0.15"/>
  <rect x="384" y="192" width="144" height="10" rx="4" fill="#a4161a" fill-opacity="0.3"/>
  <rect x="384" y="212" width="112" height="8" rx="3" fill="#a4161a" fill-opacity="0.18"/>
  <rect x="384" y="232" width="128" height="8" rx="3" fill="#a4161a" fill-opacity="0.18"/>
  <rect x="384" y="260" width="96" height="28" rx="8" fill="#ba181b" fill-opacity="0.25"/>
  <rect x="80" y="280" width="480" height="120" rx="12" fill="#f3f1f1" stroke="#ba181b" stroke-opacity="0.12"/>
  <rect x="104" y="304" width="72" height="72" rx="8" fill="#0d9488" fill-opacity="0.2"/>
  <path d="M120 336h40M120 352h32" stroke="#115e59" stroke-opacity="0.5" stroke-width="2" stroke-linecap="round"/>
  <text x="200" y="330" fill="#161a1d" font-family="Arial, sans-serif" font-size="16" font-weight="600" direction="rtl">H',('* 'DJHE</text>
  <rect x="200" y="344" width="320" height="8" rx="3" fill="#a4161a" fill-opacity="0.2"/>
  <rect x="200" y="360" width="280" height="8" rx="3" fill="#a4161a" fill-opacity="0.15"/>
  <rect x="200" y="376" width="240" height="8" rx="3" fill="#a4161a" fill-opacity="0.12"/>
</svg>
