<svg viewBox="0 0 640 480" fill="none" xmlns="http://www.w3.org/2000/svg" role="img" aria-label="Exam preparation">
  <rect width="640" height="480" fill="#faf9f9"/>
  <rect x="120" y="48" width="400" height="384" rx="12" fill="#ffffff" stroke="#ba181b" stroke-opacity="0.18" stroke-width="1.5"/>
  <rect x="152" y="80" width="200" height="12" rx="4" fill="#a4161a" fill-opacity="0.35"/>
  <text x="320" y="130" text-anchor="middle" fill="#161a1d" font-family="Arial, sans-serif" font-size="24" font-weight="700" direction="rtl">'E*-'F *,1J(J</text>
  <g>
    <rect x="152" y="160" width="336" height="32" rx="8" fill="#f3f1f1"/>
    <circle cx="172" cy="176" r="8" stroke="#0d9488" stroke-width="2" fill="#0d9488" fill-opacity="0.3"/>
    <path d="M168 176l3 3 6-6" stroke="#115e59" stroke-width="2" stroke-linecap="round"/>
    <rect x="192" y="170" width="200" height="8" rx="3" fill="#a4161a" fill-opacity="0.2"/>
  </g>
  <g>
    <rect x="152" y="208" width="336" height="32" rx="8" fill="#f3f1f1"/>
    <circle cx="172" cy="224" r="8" stroke="#0d9488" stroke-width="2" fill="#0d9488" fill-opacity="0.3"/>
    <path d="M168 224l3 3 6-6" stroke="#115e59" stroke-width="2" stroke-linecap="round"/>
    <rect x="192" y="218" width="180" height="8" rx="3" fill="#a4161a" fill-opacity="0.2"/>
  </g>
  <g>
    <rect x="152" y="256" width="336" height="32" rx="8" fill="#f3f1f1"/>
    <circle cx="172" cy="272" r="8" stroke="#ba181b" stroke-width="2"/>
    <rect x="192" y="266" width="220" height="8" rx="3" fill="#a4161a" fill-opacity="0.2"/>
  </g>
  <rect x="152" y="320" width="160" height="40" rx="10" fill="#ba181b" fill-opacity="0.2"/>
  <text x="232" y="346" text-anchor="middle" fill="#660708" font-family="Arial, sans-serif" font-size="14" font-weight="600" direction="rtl">*3DJE</text>
  <path d="M480 360l40-40 20 20-40 40h-20v-20z" fill="#0d9488" fill-opacity="0.35" stroke="#115e59" stroke-opacity="0.4"/>
  <rect x="488" y="368" width="48" height="8" rx="3" fill="#115e59" fill-opacity="0.3" transform="rotate(-45 512 372)"/>
</svg>
